<?xml version="1.0" standalone="no"?>
<svg  version="1.1"
 baseProfile="full"
viewBox="-80.0227 -67.2268 273.321 134.454" width="900" height="500" style="stroke: black; fill: none; stroke-width: .2;"
xmlns="http://www.w3.org/2000/svg"
xmlns:xlink="http://www.w3.org/1999/xlink"
xmlns:ev="http://www.w3.org/2001/xml-events">
<line x1="-69" y1="0" x2="182" y2="0" style="stroke-dasharray: 3, 1, 1, 1; stroke: blue;"  />
<line x1="-69" y1="62" x2="182" y2="62" />
<g style="font-size: 4.48179px; text-anchor: middle;">
<line x1="-60.375" y1="62" x2="-60.375" y2="60.4314" />
<text x="-60.375" y="66.4818" style="fill: black;" >-60</text>
<line x1="-51.75" y1="62" x2="-51.75" y2="60.4314" />
<text x="-51.75" y="66.4818" style="fill: black;" >-52</text>
<line x1="-43.125" y1="62" x2="-43.125" y2="60.4314" />
<text x="-43.125" y="66.4818" style="fill: black;" >-43</text>
<line x1="-34.5" y1="62" x2="-34.5" y2="60.4314" />
<text x="-34.5" y="66.4818" style="fill: black;" >-35</text>
<line x1="-25.875" y1="62" x2="-25.875" y2="60.4314" />
<text x="-25.875" y="66.4818" style="fill: black;" >-26</text>
<line x1="-17.25" y1="62" x2="-17.25" y2="60.4314" />
<text x="-17.25" y="66.4818" style="fill: black;" >-17</text>
<line x1="-8.625" y1="62" x2="-8.625" y2="60.4314" />
<text x="-8.625" y="66.4818" style="fill: black;" >-9</text>
<line x1="0" y1="62" x2="0" y2="60.4314" />
<text x="0" y="66.4818" style="fill: black;" >0</text>
<line x1="8.625" y1="62" x2="8.625" y2="60.4314" />
<text x="8.625" y="66.4818" style="fill: black;" >9</text>
<line x1="17.25" y1="62" x2="17.25" y2="60.4314" />
<text x="17.25" y="66.4818" style="fill: black;" >17</text>
<line x1="25.875" y1="62" x2="25.875" y2="60.4314" />
<text x="25.875" y="66.4818" style="fill: black;" >26</text>
<line x1="34.5" y1="62" x2="34.5" y2="60.4314" />
<text x="34.5" y="66.4818" style="fill: black;" >35</text>
<line x1="43.125" y1="62" x2="43.125" y2="60.4314" />
<text x="43.125" y="66.4818" style="fill: black;" >43</text>
<line x1="51.75" y1="62" x2="51.75" y2="60.4314" />
<text x="51.75" y="66.4818" style="fill: black;" >52</text>
<line x1="60.375" y1="62" x2="60.375" y2="60.4314" />
<text x="60.375" y="66.4818" style="fill: black;" >60</text>
<line x1="69" y1="62" x2="69" y2="60.4314" />
<text x="69" y="66.4818" style="fill: black;" >69</text>
<line x1="77.625" y1="62" x2="77.625" y2="60.4314" />
<text x="77.625" y="66.4818" style="fill: black;" >78</text>
<line x1="86.25" y1="62" x2="86.25" y2="60.4314" />
<text x="86.25" y="66.4818" style="fill: black;" >86</text>
<line x1="94.875" y1="62" x2="94.875" y2="60.4314" />
<text x="94.875" y="66.4818" style="fill: black;" >95</text>
<line x1="103.5" y1="62" x2="103.5" y2="60.4314" />
<text x="103.5" y="66.4818" style="fill: black;" >104</text>
<line x1="112.125" y1="62" x2="112.125" y2="60.4314" />
<text x="112.125" y="66.4818" style="fill: black;" >112</text>
<line x1="120.75" y1="62" x2="120.75" y2="60.4314" />
<text x="120.75" y="66.4818" style="fill: black;" >121</text>
<line x1="129.375" y1="62" x2="129.375" y2="60.4314" />
<text x="129.375" y="66.4818" style="fill: black;" >129</text>
<line x1="138" y1="62" x2="138" y2="60.4314" />
<text x="138" y="66.4818" style="fill: black;" >138</text>
<line x1="146.625" y1="62" x2="146.625" y2="60.4314" />
<text x="146.625" y="66.4818" style="fill: black;" >147</text>
<line x1="155.25" y1="62" x2="155.25" y2="60.4314" />
<text x="155.25" y="66.4818" style="fill: black;" >155</text>
<line x1="163.875" y1="62" x2="163.875" y2="60.4314" />
<text x="163.875" y="66.4818" style="fill: black;" >164</text>
<line x1="172.5" y1="62" x2="172.5" y2="60.4314" />
<text x="172.5" y="66.4818" style="fill: black;" >173</text>
<line x1="181.125" y1="62" x2="181.125" y2="60.4314" />
<text x="181.125" y="66.4818" style="fill: black;" >181</text>
</g>
<g style="font-size: 4.48179px; text-anchor: end;">
<line x1="-69" y1="62" x2="-69" y2="-62" />
<line x1="-69" y1="54.25" x2="-67.6334" y2="54.25" />
<text x="-70.3666" y="54.25" style="baseline-shift:-35%; fill:black;" >-54</text>
<line x1="-69" y1="46.5" x2="-67.6334" y2="46.5" />
<text x="-70.3666" y="46.5" style="baseline-shift:-35%; fill:black;" >-47</text>
<line x1="-69" y1="38.75" x2="-67.6334" y2="38.75" />
<text x="-70.3666" y="38.75" style="baseline-shift:-35%; fill:black;" >-39</text>
<line x1="-69" y1="31" x2="-67.6334" y2="31" />
<text x="-70.3666" y="31" style="baseline-shift:-35%; fill:black;" >-31</text>
<line x1="-69" y1="23.25" x2="-67.6334" y2="23.25" />
<text x="-70.3666" y="23.25" style="baseline-shift:-35%; fill:black;" >-23</text>
<line x1="-69" y1="15.5" x2="-67.6334" y2="15.5" />
<text x="-70.3666" y="15.5" style="baseline-shift:-35%; fill:black;" >-16</text>
<line x1="-69" y1="7.75" x2="-67.6334" y2="7.75" />
<text x="-70.3666" y="7.75" style="baseline-shift:-35%; fill:black;" >-8</text>
<line x1="-69" y1="-0" x2="-67.6334" y2="-0" />
<text x="-70.3666" y="-0" style="baseline-shift:-35%; fill:black;" >0</text>
<line x1="-69" y1="-7.75" x2="-67.6334" y2="-7.75" />
<text x="-70.3666" y="-7.75" style="baseline-shift:-35%; fill:black;" >8</text>
<line x1="-69" y1="-15.5" x2="-67.6334" y2="-15.5" />
<text x="-70.3666" y="-15.5" style="baseline-shift:-35%; fill:black;" >16</text>
<line x1="-69" y1="-23.25" x2="-67.6334" y2="-23.25" />
<text x="-70.3666" y="-23.25" style="baseline-shift:-35%; fill:black;" >23</text>
<line x1="-69" y1="-31" x2="-67.6334" y2="-31" />
<text x="-70.3666" y="-31" style="baseline-shift:-35%; fill:black;" >31</text>
<line x1="-69" y1="-38.75" x2="-67.6334" y2="-38.75" />
<text x="-70.3666" y="-38.75" style="baseline-shift:-35%; fill:black;" >39</text>
<line x1="-69" y1="-46.5" x2="-67.6334" y2="-46.5" />
<text x="-70.3666" y="-46.5" style="baseline-shift:-35%; fill:black;" >47</text>
<line x1="-69" y1="-54.25" x2="-67.6334" y2="-54.25" />
<text x="-70.3666" y="-54.25" style="baseline-shift:-35%; fill:black;" >54</text>
</g>
<g transform="scale(1,-1)">
<g>
<polygon points="0 19.2089 0 48.0223 5.53645 45.3459 29.5926 45.3459 29.5926 29.1194 5.53645 29.1194 5.53645 24.8773 " />
<polygon points="0 -19.2089 0 -48.0223 5.53645 -45.3459 29.5926 -45.3459 29.5926 -29.1194 5.53645 -29.1194 5.53645 -24.8773 " />
<polygon style="fill: black;" points="0 19.2089 0 48.0223 4.42916 45.8812 4.42916 23.7436 " />
<polygon style="fill: black;" points="0 -19.2089 0 -48.0223 4.42916 -45.8812 4.42916 -23.7436 " />
<polyline style="fill: black;" points="-2.21458 49.0929 -2.21458 52.0929 6.64374 47.8106 6.64374 44.8106 -2.21458 49.0929 " />
<polyline style="fill: black;" points="-2.21458 -49.0929 -2.21458 -52.0929 6.64374 -47.8106 6.64374 -44.8106 -2.21458 -49.0929 " />
<polygon style="fill: red;" points="-2.21458 49.0929 -2.21458 52.0929 6.64374 47.8106 6.64374 44.8106 -2.21458 49.0929 " />
<polygon style="fill: red;" points="-2.21458 -49.0929 -2.21458 -52.0929 6.64374 -47.8106 6.64374 -44.8106 -2.21458 -49.0929 " />
<polygon style="fill: white;" points="13.5089 29.1194 13.5089 45.3459 17.5656 45.3459 17.5656 29.1194 " />
<polygon style="fill: white;" points="13.5089 -29.1194 13.5089 -45.3459 17.5656 -45.3459 17.5656 -29.1194 " />
</g>
<g>
<polygon points="0 12.466 0 19.2089 4.42916 19.2089 4.42916 12.466 0 12.466 0 14.1234 4.42916 14.1234 4.42916 12.466 " />
<polygon points="0 -12.466 0 -19.2089 4.42916 -19.2089 4.42916 -12.466 0 -12.466 0 -14.1234 4.42916 -14.1234 4.42916 -12.466 " />
<line x1="4.42916" y1="19.2089" x2="4.42916" y2="24.8773"  />
<line x1="4.42916" y1="-19.2089" x2="4.42916" y2="-24.8773"  />
</g>
<g>
<polygon style="fill: yellow;" points="23.102 29.1194 23.102 45.3459 29.5926 45.3459 29.5926 29.1194 " />
<polygon style="fill: yellow;" points="23.102 -29.1194 23.102 -45.3459 29.5926 -45.3459 29.5926 -29.1194 " />
</g>
<g>
<line x1="5.53645" y1="24.721" x2="5.53645" y2="29.2756"  />
<line x1="5.53645" y1="-24.721" x2="5.53645" y2="-29.2756"  />
<polyline points="5.53645 24.721 5.61498 24.7203 5.69351 24.7181 5.77204 24.7144 5.85056 24.7094 5.92909 24.7029 6.00762 24.6953 6.08615 24.6864 6.16467 24.6764 6.2432 24.6654 6.32173 24.6536 6.40026 24.641 6.47879 24.6279 6.55731 24.6142 6.63584 24.6003 6.71437 24.5862 6.7929 24.5721 6.87142 24.5582 6.94995 24.5445 7.02848 24.5314 7.10701 24.5188 7.18553 24.5069 7.26406 24.496 7.34259 24.486 7.42112 24.4771 7.49965 24.4694 7.57817 24.463 7.6567 24.458 7.73523 24.4543 7.81376 24.4521 " />
<polyline points="5.53645 -24.721 5.61498 -24.7203 5.69351 -24.7181 5.77204 -24.7144 5.85056 -24.7094 5.92909 -24.7029 6.00762 -24.6953 6.08615 -24.6864 6.16467 -24.6764 6.2432 -24.6654 6.32173 -24.6536 6.40026 -24.641 6.47879 -24.6279 6.55731 -24.6142 6.63584 -24.6003 6.71437 -24.5862 6.7929 -24.5721 6.87142 -24.5582 6.94995 -24.5445 7.02848 -24.5314 7.10701 -24.5188 7.18553 -24.5069 7.26406 -24.496 7.34259 -24.486 7.42112 -24.4771 7.49965 -24.4694 7.57817 -24.463 7.6567 -24.458 7.73523 -24.4543 7.81376 -24.4521 " />
<polyline points="5.53645 29.2756 5.61498 29.2742 5.69351 29.27 5.77204 29.2632 5.85056 29.2536 5.92909 29.2415 6.00762 29.227 6.08615 29.2102 6.16467 29.1914 6.2432 29.1706 6.32173 29.1483 6.40026 29.1245 6.47879 29.0997 6.55731 29.0739 6.63584 29.0476 6.71437 29.021 6.7929 28.9943 6.87142 28.968 6.94995 28.9423 7.02848 28.9174 7.10701 28.8936 7.18553 28.8713 7.26406 28.8506 7.34259 28.8317 7.42112 28.815 7.49965 28.8004 7.57817 28.7883 7.6567 28.7788 7.73523 28.7719 7.81376 28.7677 " />
<polyline points="5.53645 -29.2756 5.61498 -29.2742 5.69351 -29.27 5.77204 -29.2632 5.85056 -29.2536 5.92909 -29.2415 6.00762 -29.227 6.08615 -29.2102 6.16467 -29.1914 6.2432 -29.1706 6.32173 -29.1483 6.40026 -29.1245 6.47879 -29.0997 6.55731 -29.0739 6.63584 -29.0476 6.71437 -29.021 6.7929 -28.9943 6.87142 -28.968 6.94995 -28.9423 7.02848 -28.9174 7.10701 -28.8936 7.18553 -28.8713 7.26406 -28.8506 7.34259 -28.8317 7.42112 -28.815 7.49965 -28.8004 7.57817 -28.7883 7.6567 -28.7788 7.73523 -28.7719 7.81376 -28.7677 " />
</g>
<g>
<line x1="7.81376" y1="24.4514" x2="7.81376" y2="28.7663"  />
<line x1="7.81376" y1="-24.4514" x2="7.81376" y2="-28.7663"  />
<polyline points="7.81376 28.7663 7.81376 28.7663 11.0164 28.7663 15.504 26.3691 19.9204 23.9719 24.1605 21.5747 " />
<polyline points="7.81376 -28.7663 7.81376 -28.7663 11.0164 -28.7663 15.504 -26.3691 19.9204 -23.9719 24.1605 -21.5747 " />
<polyline points="7.81376 24.4514 7.81376 24.4514 11.0164 24.4514 15.504 22.5944 19.9204 20.5525 24.1605 18.3724 " />
<polyline points="7.81376 -24.4514 7.81376 -24.4514 11.0164 -24.4514 15.504 -22.5944 19.9204 -20.5525 24.1605 -18.3724 " />
<line x1="24.1605" y1="18.3724" x2="24.1605" y2="21.5747"  />
<line x1="24.1605" y1="-18.3724" x2="24.1605" y2="-21.5747"  />
<polygon style="fill: white;" points="7.81376 28.7663 7.81376 24.4514 10.6904 24.4514 10.6904 28.7663 " />
<polygon style="fill: white;" points="7.81376 -28.7663 7.81376 -24.4514 10.6904 -24.4514 10.6904 -28.7663 " />
<polygon style="fill: black;" points="11.0164 28.7663 11.0164 24.4514 12.9342 23.6578 12.9342 27.7419 " />
<polygon style="fill: black;" points="11.0164 -28.7663 11.0164 -24.4514 12.9342 -23.6578 12.9342 -27.7419 " />
<polygon style="fill: white;" points="13.2602 27.5677 13.2602 23.5229 15.1779 22.7293 15.1779 26.5433 " />
<polygon style="fill: white;" points="13.2602 -27.5677 13.2602 -23.5229 15.1779 -22.7293 15.1779 -26.5433 " />
<polygon style="fill: black;" points="15.504 26.3691 15.504 22.5944 17.3913 21.7218 17.3913 25.3447 " />
<polygon style="fill: black;" points="15.504 -26.3691 15.504 -22.5944 17.3913 -21.7218 17.3913 -25.3447 " />
<polygon style="fill: white;" points="17.7122 25.1705 17.7122 21.5734 19.5995 20.7008 19.5995 24.1461 " />
<polygon style="fill: white;" points="17.7122 -25.1705 17.7122 -21.5734 19.5995 -20.7008 19.5995 -24.1461 " />
<polygon style="fill: black;" points="19.9204 23.9719 19.9204 20.5525 21.8743 19.5478 21.8743 22.8672 " />
<polygon style="fill: black;" points="19.9204 -23.9719 19.9204 -20.5525 21.8743 -19.5478 21.8743 -22.8672 " />
<polygon style="fill: white;" points="22.2065 22.6794 22.2065 19.377 24.1605 18.3724 24.1605 21.5747 " />
<polygon style="fill: white;" points="22.2065 -22.6794 22.2065 -19.377 24.1605 -18.3724 24.1605 -21.5747 " />
</g>
<g>
<polygon points="11.0164 22.5053 11.0164 22.5944 12.9342 22.5944 12.9342 22.5053 11.0164 22.5053 11.0164 23.6898 12.9342 23.6898 12.9342 22.5053 " />
<polygon points="11.0164 -22.5053 11.0164 -22.5944 12.9342 -22.5944 12.9342 -22.5053 11.0164 -22.5053 11.0164 -23.6898 12.9342 -23.6898 12.9342 -22.5053 " />
<line x1="11.0164" y1="22.5944" x2="11.0164" y2="24.4514"  />
<line x1="11.0164" y1="-22.5944" x2="11.0164" y2="-24.4514"  />
<polygon points="15.504 20.8318 15.504 20.5525 17.3913 20.5525 17.3913 20.8318 15.504 20.8318 15.504 21.9282 17.3913 21.9282 17.3913 20.8318 " />
<polygon points="15.504 -20.8318 15.504 -20.5525 17.3913 -20.5525 17.3913 -20.8318 15.504 -20.8318 15.504 -21.9282 17.3913 -21.9282 17.3913 -20.8318 " />
<line x1="15.504" y1="20.5525" x2="15.504" y2="22.5944"  />
<line x1="15.504" y1="-20.5525" x2="15.504" y2="-22.5944"  />
<polygon points="19.9204 18.9515 19.9204 18.3724 21.8743 18.3724 21.8743 18.9515 19.9204 18.9515 19.9204 19.949 21.8743 19.949 21.8743 18.9515 " />
<polygon points="19.9204 -18.9515 19.9204 -18.3724 21.8743 -18.3724 21.8743 -18.9515 19.9204 -18.9515 19.9204 -19.949 21.8743 -19.949 21.8743 -18.9515 " />
<line x1="19.9204" y1="18.3724" x2="19.9204" y2="20.5525"  />
<line x1="19.9204" y1="-18.3724" x2="19.9204" y2="-20.5525"  />
</g>
<g>
<line x1="24.1605" y1="18.3724" x2="24.1605" y2="21.5747"  />
<line x1="24.1605" y1="-18.3724" x2="24.1605" y2="-21.5747"  />
<polyline points="24.1605 18.3724 24.3813 18.3557 24.6022 18.3058 24.823 18.2232 25.0439 18.1088 25.2648 17.964 25.4856 17.7902 25.7065 17.5894 25.9273 17.3638 26.1482 17.1158 26.369 16.8482 26.5899 16.5639 26.8107 16.2661 27.0316 15.9579 27.2524 15.6427 27.4733 15.3241 27.6941 15.0055 27.915 14.6903 28.1358 14.3821 28.3567 14.0843 28.5776 13.8 28.7984 13.5324 29.0193 13.2844 29.2401 13.0588 29.461 12.858 29.6818 12.6842 29.9027 12.5394 30.1235 12.425 30.3444 12.3425 30.5652 12.2925 " />
<polyline points="24.1605 -18.3724 24.3813 -18.3557 24.6022 -18.3058 24.823 -18.2232 25.0439 -18.1088 25.2648 -17.964 25.4856 -17.7902 25.7065 -17.5894 25.9273 -17.3638 26.1482 -17.1158 26.369 -16.8482 26.5899 -16.5639 26.8107 -16.2661 27.0316 -15.9579 27.2524 -15.6427 27.4733 -15.3241 27.6941 -15.0055 27.915 -14.6903 28.1358 -14.3821 28.3567 -14.0843 28.5776 -13.8 28.7984 -13.5324 29.0193 -13.2844 29.2401 -13.0588 29.461 -12.858 29.6818 -12.6842 29.9027 -12.5394 30.1235 -12.425 30.3444 -12.3425 30.5652 -12.2925 " />
<polyline points="24.1605 21.5747 24.3813 21.5614 24.6022 21.5215 24.823 21.4555 25.0439 21.3641 25.2648 21.2483 25.4856 21.1094 25.7065 20.9489 25.9273 20.7686 26.1482 20.5704 26.369 20.3565 26.5899 20.1293 26.8107 19.8912 27.0316 19.6449 27.2524 19.393 27.4733 19.1383 27.6941 18.8836 27.915 18.6317 28.1358 18.3854 28.3567 18.1473 28.5776 17.9201 28.7984 17.7062 29.0193 17.508 29.2401 17.3276 29.461 17.1672 29.6818 17.0283 29.9027 16.9125 30.1235 16.8211 30.3444 16.7551 30.5652 16.7152 " />
<polyline points="24.1605 -21.5747 24.3813 -21.5614 24.6022 -21.5215 24.823 -21.4555 25.0439 -21.3641 25.2648 -21.2483 25.4856 -21.1094 25.7065 -20.9489 25.9273 -20.7686 26.1482 -20.5704 26.369 -20.3565 26.5899 -20.1293 26.8107 -19.8912 27.0316 -19.6449 27.2524 -19.393 27.4733 -19.1383 27.6941 -18.8836 27.915 -18.6317 28.1358 -18.3854 28.3567 -18.1473 28.5776 -17.9201 28.7984 -17.7062 29.0193 -17.508 29.2401 -17.3276 29.461 -17.1672 29.6818 -17.0283 29.9027 -16.9125 30.1235 -16.8211 30.3444 -16.7551 30.5652 -16.7152 " />
</g>
<g>
<polygon style="fill: yellow;" points="25.5615 17.6804 25.5615 21.0217 29.5645 16.9895 29.5645 12.6358 " />
<polygon style="fill: yellow;" points="25.5615 -17.6804 25.5615 -21.0217 29.5645 -16.9895 29.5645 -12.6358 " />
<line x1="25.5615" y1="21.0217" x2="23.102" y2="29.1194"  />
<line x1="25.5615" y1="-21.0217" x2="23.102" y2="-29.1194"  />
<line x1="29.5645" y1="16.9895" x2="29.5926" y2="29.1194"  />
<line x1="29.5645" y1="-16.9895" x2="29.5926" y2="-29.1194"  />
</g>
<g>
<line x1="30.5652" y1="12.2758" x2="30.5652" y2="16.7018"  />
<line x1="30.5652" y1="-12.2758" x2="30.5652" y2="-16.7018"  />
<polyline points="30.5652 16.7018 30.5652 16.7018 31.9539 16.7018 35.8377 16.137 39.4856 15.6557 42.9445 15.2409 46.2539 14.8803 49.4476 14.5643 52.556 14.2861 55.6067 14.0402 58.6258 13.8232 61.6393 13.6324 64.674 13.4667 67.5345 13.0455 " />
<polyline points="30.5652 -16.7018 30.5652 -16.7018 31.9539 -16.7018 35.8377 -16.137 39.4856 -15.6557 42.9445 -15.2409 46.2539 -14.8803 49.4476 -14.5643 52.556 -14.2861 55.6067 -14.0402 58.6258 -13.8232 61.6393 -13.6324 64.674 -13.4667 67.5345 -13.0455 " />
<polyline points="30.5652 12.2758 30.5652 12.2758 31.9539 12.2758 35.8377 12.1642 39.4856 12.0526 42.9445 11.941 46.2539 11.8294 49.4476 11.7179 52.556 11.6063 55.6067 11.4947 58.6258 11.3831 61.6393 11.2715 64.674 11.1599 67.5345 11.0483 " />
<polyline points="30.5652 -12.2758 30.5652 -12.2758 31.9539 -12.2758 35.8377 -12.1642 39.4856 -12.0526 42.9445 -11.941 46.2539 -11.8294 49.4476 -11.7179 52.556 -11.6063 55.6067 -11.4947 58.6258 -11.3831 61.6393 -11.2715 64.674 -11.1599 67.5345 -11.0483 " />
<line x1="67.5345" y1="11.0483" x2="67.5345" y2="13.3258"  />
<line x1="67.5345" y1="-11.0483" x2="67.5345" y2="-13.3258"  />
<polygon style="fill: white;" points="30.5652 16.7018 30.5652 12.2758 31.6717 12.2758 31.6717 16.7018 " />
<polygon style="fill: white;" points="30.5652 -16.7018 30.5652 -12.2758 31.6717 -12.2758 31.6717 -16.7018 " />
<polyline points="31.2596 16.7018 31.2596 18.6018 32.2596 18.6018 32.2596 18.3518 32.7596 18.3518 32.7596 18.8518 32.2596 18.8518 32.2596 18.6018 " />
<polyline points="31.2596 -16.7018 31.2596 -18.6018 32.2596 -18.6018 32.2596 -18.3518 32.7596 -18.3518 32.7596 -18.8518 32.2596 -18.8518 32.2596 -18.6018 " />
<polygon style="fill: black;" points="31.9539 16.7018 31.9539 12.2758 34.1669 12.2123 34.1669 16.38 " />
<polygon style="fill: black;" points="31.9539 -16.7018 31.9539 -12.2758 34.1669 -12.2123 34.1669 -16.38 " />
<polygon style="fill: white;" points="34.449 16.339 34.449 12.2041 35.5555 12.1724 35.5555 16.1781 " />
<polygon style="fill: white;" points="34.449 -16.339 34.449 -12.2041 35.5555 -12.1724 35.5555 -16.1781 " />
<polyline points="35.0023 16.2585 35.0023 18.1585 36.0023 18.1585 36.0023 17.9085 36.5023 17.9085 36.5023 18.4085 36.0023 18.4085 36.0023 18.1585 " />
<polyline points="35.0023 -16.2585 35.0023 -18.1585 36.0023 -18.1585 36.0023 -17.9085 36.5023 -17.9085 36.5023 -18.4085 36.0023 -18.4085 36.0023 -18.1585 " />
<polygon style="fill: black;" points="35.8377 16.137 35.8377 12.1642 37.8492 12.1027 37.8492 15.8716 " />
<polygon style="fill: black;" points="35.8377 -16.137 35.8377 -12.1642 37.8492 -12.1027 37.8492 -15.8716 " />
<polygon style="fill: white;" points="38.1142 15.8366 38.1142 12.0946 39.2206 12.0608 39.2206 15.6907 " />
<polygon style="fill: white;" points="38.1142 -15.8366 38.1142 -12.0946 39.2206 -12.0608 39.2206 -15.6907 " />
<polyline points="38.6674 15.7636 38.6674 17.6636 39.6674 17.6636 39.6674 17.4136 40.1674 17.4136 40.1674 17.9136 39.6674 17.9136 39.6674 17.6636 " />
<polyline points="38.6674 -15.7636 38.6674 -17.6636 39.6674 -17.6636 39.6674 -17.4136 40.1674 -17.4136 40.1674 -17.9136 39.6674 -17.9136 39.6674 -17.6636 " />
<polygon style="fill: black;" points="39.4856 15.6557 39.4856 12.0526 41.3333 11.993 41.3333 15.4341 " />
<polygon style="fill: black;" points="39.4856 -15.6557 39.4856 -12.0526 41.3333 -11.993 41.3333 -15.4341 " />
<polygon style="fill: white;" points="41.5846 15.404 41.5846 11.9849 42.6932 11.9492 42.6932 15.2711 " />
<polygon style="fill: white;" points="41.5846 -15.404 41.5846 -11.9849 42.6932 -11.9492 42.6932 -15.2711 " />
<polyline points="42.1389 15.3375 42.1389 17.2375 43.1389 17.2375 43.1389 16.9875 43.6389 16.9875 43.6389 17.4875 43.1389 17.4875 43.1389 17.2375 " />
<polyline points="42.1389 -15.3375 42.1389 -17.2375 43.1389 -17.2375 43.1389 -16.9875 43.6389 -16.9875 43.6389 -17.4875 43.1389 -17.4875 43.1389 -17.2375 " />
<polygon style="fill: black;" points="42.9445 15.2409 42.9445 11.941 44.6588 11.8832 44.6588 15.0541 " />
<polygon style="fill: black;" points="42.9445 -15.2409 42.9445 -11.941 44.6588 -11.8832 44.6588 -15.0541 " />
<polygon style="fill: white;" points="44.8992 15.0279 44.8992 11.8751 46.0134 11.8376 46.0134 14.9065 " />
<polygon style="fill: white;" points="44.8992 -15.0279 44.8992 -11.8751 46.0134 -11.8376 46.0134 -14.9065 " />
<polygon style="fill: black;" points="46.2539 14.8803 46.2539 11.8294 47.8596 11.7733 47.8596 14.7215 " />
<polygon style="fill: black;" points="46.2539 -14.8803 46.2539 -11.8294 47.8596 -11.7733 47.8596 -14.7215 " />
<polygon style="fill: white;" points="48.0916 14.6985 48.0916 11.7652 49.2156 11.726 49.2156 14.5873 " />
<polygon style="fill: white;" points="48.0916 -14.6985 48.0916 -11.7652 49.2156 -11.726 49.2156 -14.5873 " />
<polygon style="fill: black;" points="49.4476 14.5643 49.4476 11.7179 50.9657 11.6633 50.9657 14.4284 " />
<polygon style="fill: black;" points="49.4476 -14.5643 49.4476 -11.7179 50.9657 -11.6633 50.9657 -14.4284 " />
<polygon style="fill: white;" points="51.1916 14.4082 51.1916 11.6552 52.3302 11.6144 52.3302 14.3063 " />
<polygon style="fill: white;" points="51.1916 -14.4082 51.1916 -11.6552 52.3302 -11.6144 52.3302 -14.3063 " />
<polygon style="fill: black;" points="52.556 14.2861 52.556 11.6063 54.0045 11.5533 54.0045 14.1694 " />
<polygon style="fill: black;" points="52.556 -14.2861 52.556 -11.6063 54.0045 -11.5533 54.0045 -14.1694 " />
<polygon style="fill: white;" points="54.2262 14.1515 54.2262 11.5452 55.385 11.5028 55.385 14.0581 " />
<polygon style="fill: white;" points="54.2262 -14.1515 54.2262 -11.5452 55.385 -11.5028 55.385 -14.0581 " />
<polygon style="fill: black;" points="55.6067 14.0402 55.6067 11.4947 57.0015 11.4431 57.0015 13.94 " />
<polygon style="fill: black;" points="55.6067 -14.0402 55.6067 -11.4947 57.0015 -11.4431 57.0015 -13.94 " />
<polygon style="fill: white;" points="57.2208 13.9242 57.2208 11.435 58.4065 11.3912 58.4065 13.8389 " />
<polygon style="fill: white;" points="57.2208 -13.9242 57.2208 -11.435 58.4065 -11.3912 58.4065 -13.8389 " />
<polygon style="fill: black;" points="58.6258 13.8232 58.6258 11.3831 59.9814 11.3329 59.9814 13.7373 " />
<polygon style="fill: black;" points="58.6258 -13.8232 58.6258 -11.3831 59.9814 -11.3329 59.9814 -13.7373 " />
<polygon style="fill: white;" points="60.2003 13.7235 60.2003 11.3247 61.4204 11.2796 61.4204 13.6463 " />
<polygon style="fill: white;" points="60.2003 -13.7235 60.2003 -11.3247 61.4204 -11.2796 61.4204 -13.6463 " />
<polygon style="fill: black;" points="61.6393 13.6324 61.6393 11.2715 62.9694 11.2225 62.9694 13.5598 " />
<polygon style="fill: black;" points="61.6393 -13.6324 61.6393 -11.2715 62.9694 -11.2225 62.9694 -13.5598 " />
<polygon style="fill: white;" points="63.1899 13.5478 63.1899 11.2144 64.4535 11.168 64.4535 13.4788 " />
<polygon style="fill: white;" points="63.1899 -13.5478 63.1899 -11.2144 64.4535 -11.168 64.4535 -13.4788 " />
<polygon style="fill: black;" points="64.674 13.4667 64.674 11.1599 65.9922 11.1084 65.9922 13.4018 " />
<polygon style="fill: black;" points="64.674 -13.4667 64.674 -11.1599 65.9922 -11.1084 65.9922 -13.4018 " />
<polygon style="fill: white;" points="66.2163 13.3907 66.2163 11.0997 67.5345 11.0483 67.5345 13.3258 " />
<polygon style="fill: white;" points="66.2163 -13.3907 66.2163 -11.0997 67.5345 -11.0483 67.5345 -13.3258 " />
</g>
<g>
<polygon points="31.9539 9.09234 31.9539 12.1642 34.1669 12.1642 34.1669 9.09234 31.9539 9.09234 31.9539 11.4947 34.1669 11.4947 34.1669 9.09234 " />
<polygon points="31.9539 -9.09234 31.9539 -12.1642 34.1669 -12.1642 34.1669 -9.09234 31.9539 -9.09234 31.9539 -11.4947 34.1669 -11.4947 34.1669 -9.09234 " />
<line x1="31.9539" y1="12.1642" x2="31.9539" y2="12.2758"  />
<line x1="31.9539" y1="-12.1642" x2="31.9539" y2="-12.2758"  />
<polygon points="35.8377 9.29754 35.8377 12.0526 37.8492 12.0526 37.8492 9.29754 35.8377 9.29754 35.8377 11.463 37.8492 11.463 37.8492 9.29754 " />
<polygon points="35.8377 -9.29754 35.8377 -12.0526 37.8492 -12.0526 37.8492 -9.29754 35.8377 -9.29754 35.8377 -11.463 37.8492 -11.463 37.8492 -9.29754 " />
<line x1="35.8377" y1="12.0526" x2="35.8377" y2="12.1642"  />
<line x1="35.8377" y1="-12.0526" x2="35.8377" y2="-12.1642"  />
<polygon points="39.4856 9.44951 39.4856 11.941 41.3333 11.941 41.3333 9.44951 39.4856 9.44951 39.4856 11.4167 41.3333 11.4167 41.3333 9.44951 " />
<polygon points="39.4856 -9.44951 39.4856 -11.941 41.3333 -11.941 41.3333 -9.44951 39.4856 -9.44951 39.4856 -11.4167 41.3333 -11.4167 41.3333 -9.44951 " />
<line x1="39.4856" y1="11.941" x2="39.4856" y2="12.0526"  />
<line x1="39.4856" y1="-11.941" x2="39.4856" y2="-12.0526"  />
<polygon points="42.9445 9.55056 42.9445 11.8294 44.6588 11.8294 44.6588 9.55056 42.9445 9.55056 42.9445 11.3586 44.6588 11.3586 44.6588 9.55056 " />
<polygon points="42.9445 -9.55056 42.9445 -11.8294 44.6588 -11.8294 44.6588 -9.55056 42.9445 -9.55056 42.9445 -11.3586 44.6588 -11.3586 44.6588 -9.55056 " />
<line x1="42.9445" y1="11.8294" x2="42.9445" y2="11.941"  />
<line x1="42.9445" y1="-11.8294" x2="42.9445" y2="-11.941"  />
<polygon points="46.2539 9.60911 46.2539 11.7179 47.8596 11.7179 47.8596 9.60911 46.2539 9.60911 46.2539 11.291 47.8596 11.291 47.8596 9.60911 " />
<polygon points="46.2539 -9.60911 46.2539 -11.7179 47.8596 -11.7179 47.8596 -9.60911 46.2539 -9.60911 46.2539 -11.291 47.8596 -11.291 47.8596 -9.60911 " />
<line x1="46.2539" y1="11.7179" x2="46.2539" y2="11.8294"  />
<line x1="46.2539" y1="-11.7179" x2="46.2539" y2="-11.8294"  />
<polygon points="49.4476 9.73917 49.4476 11.6063 50.9657 11.6063 50.9657 9.73917 49.4476 9.73917 49.4476 11.2154 50.9657 11.2154 50.9657 9.73917 " />
<polygon points="49.4476 -9.73917 49.4476 -11.6063 50.9657 -11.6063 50.9657 -9.73917 49.4476 -9.73917 49.4476 -11.2154 50.9657 -11.2154 50.9657 -9.73917 " />
<line x1="49.4476" y1="11.6063" x2="49.4476" y2="11.7179"  />
<line x1="49.4476" y1="-11.6063" x2="49.4476" y2="-11.7179"  />
<polygon points="52.556 9.73604 52.556 11.4947 54.0045 11.4947 54.0045 9.73604 52.556 9.73604 52.556 11.1333 54.0045 11.1333 54.0045 9.73604 " />
<polygon points="52.556 -9.73604 52.556 -11.4947 54.0045 -11.4947 54.0045 -9.73604 52.556 -9.73604 52.556 -11.1333 54.0045 -11.1333 54.0045 -9.73604 " />
<line x1="52.556" y1="11.4947" x2="52.556" y2="11.6063"  />
<line x1="52.556" y1="-11.4947" x2="52.556" y2="-11.6063"  />
<polygon points="55.6067 9.70709 55.6067 11.3831 57.0015 11.3831 57.0015 9.70709 55.6067 9.70709 55.6067 11.0454 57.0015 11.0454 57.0015 9.70709 " />
<polygon points="55.6067 -9.70709 55.6067 -11.3831 57.0015 -11.3831 57.0015 -9.70709 55.6067 -9.70709 55.6067 -11.0454 57.0015 -11.0454 57.0015 -9.70709 " />
<line x1="55.6067" y1="11.3831" x2="55.6067" y2="11.4947"  />
<line x1="55.6067" y1="-11.3831" x2="55.6067" y2="-11.4947"  />
<polygon points="58.6258 9.66436 58.6258 11.2715 59.9814 11.2715 59.9814 9.66436 58.6258 9.66436 58.6258 10.9524 59.9814 10.9524 59.9814 9.66436 " />
<polygon points="58.6258 -9.66436 58.6258 -11.2715 59.9814 -11.2715 59.9814 -9.66436 58.6258 -9.66436 58.6258 -10.9524 59.9814 -10.9524 59.9814 -9.66436 " />
<line x1="58.6258" y1="11.2715" x2="58.6258" y2="11.3831"  />
<line x1="58.6258" y1="-11.2715" x2="58.6258" y2="-11.3831"  />
<polygon points="61.6393 8.90468 61.6393 11.1599 62.9694 11.1599 62.9694 8.90468 61.6393 8.90468 61.6393 10.8547 62.9694 10.8547 62.9694 8.90468 " />
<polygon points="61.6393 -8.90468 61.6393 -11.1599 62.9694 -11.1599 62.9694 -8.90468 61.6393 -8.90468 61.6393 -10.8547 62.9694 -10.8547 62.9694 -8.90468 " />
<line x1="61.6393" y1="11.1599" x2="61.6393" y2="11.2715"  />
<line x1="61.6393" y1="-11.1599" x2="61.6393" y2="-11.2715"  />
<polygon points="64.674 8.88457 64.674 11.0483 65.9922 11.0483 65.9922 8.88457 64.674 8.88457 64.674 10.7527 65.9922 10.7527 65.9922 8.88457 " />
<polygon points="64.674 -8.88457 64.674 -11.0483 65.9922 -11.0483 65.9922 -8.88457 64.674 -8.88457 64.674 -10.7527 65.9922 -10.7527 65.9922 -8.88457 " />
<line x1="64.674" y1="11.0483" x2="64.674" y2="11.1599"  />
<line x1="64.674" y1="-11.0483" x2="64.674" y2="-11.1599"  />
</g>
<g>
<line x1="67.5345" y1="11.3286" x2="67.5345" y2="13.0455"  />
<line x1="67.5345" y1="-11.3286" x2="67.5345" y2="-13.0455"  />
<polyline points="67.5345 11.3286 67.6825 11.3142 67.8305 11.2713 67.9785 11.2003 68.1265 11.1021 68.2746 10.9776 68.4226 10.8282 68.5706 10.6557 68.7186 10.4618 68.8666 10.2487 69.0146 10.0187 69.1626 9.7744 69.3106 9.51841 69.4586 9.25354 69.6067 8.98271 69.7547 8.70888 69.9027 8.43505 70.0507 8.16422 70.1987 7.89936 70.3467 7.64337 70.4947 7.39905 70.6427 7.16908 70.7908 6.95598 70.9388 6.76209 71.0868 6.58953 71.2348 6.44018 71.3828 6.3157 71.5308 6.21743 71.6788 6.14646 71.8268 6.10356 " />
<polyline points="67.5345 -11.3286 67.6825 -11.3142 67.8305 -11.2713 67.9785 -11.2003 68.1265 -11.1021 68.2746 -10.9776 68.4226 -10.8282 68.5706 -10.6557 68.7186 -10.4618 68.8666 -10.2487 69.0146 -10.0187 69.1626 -9.7744 69.3106 -9.51841 69.4586 -9.25354 69.6067 -8.98271 69.7547 -8.70888 69.9027 -8.43505 70.0507 -8.16422 70.1987 -7.89936 70.3467 -7.64337 70.4947 -7.39905 70.6427 -7.16908 70.7908 -6.95598 70.9388 -6.76209 71.0868 -6.58953 71.2348 -6.44018 71.3828 -6.3157 71.5308 -6.21743 71.6788 -6.14646 71.8268 -6.10356 " />
<polyline points="67.5345 13.0455 67.6825 13.0539 67.8305 13.0791 67.9785 13.1208 68.1265 13.1785 68.2746 13.2517 68.4226 13.3394 68.5706 13.4408 68.7186 13.5547 68.8666 13.6799 69.0146 13.815 69.1626 13.9585 69.3106 14.1089 69.4586 14.2645 69.6067 14.4236 69.7547 14.5845 69.9027 14.7454 70.0507 14.9045 70.1987 15.0601 70.3467 15.2105 70.4947 15.354 70.6427 15.4891 70.7908 15.6143 70.9388 15.7282 71.0868 15.8296 71.2348 15.9173 71.3828 15.9905 71.5308 16.0482 71.6788 16.0899 71.8268 16.1151 " />
<polyline points="67.5345 -13.0455 67.6825 -13.0539 67.8305 -13.0791 67.9785 -13.1208 68.1265 -13.1785 68.2746 -13.2517 68.4226 -13.3394 68.5706 -13.4408 68.7186 -13.5547 68.8666 -13.6799 69.0146 -13.815 69.1626 -13.9585 69.3106 -14.1089 69.4586 -14.2645 69.6067 -14.4236 69.7547 -14.5845 69.9027 -14.7454 70.0507 -14.9045 70.1987 -15.0601 70.3467 -15.2105 70.4947 -15.354 70.6427 -15.4891 70.7908 -15.6143 70.9388 -15.7282 71.0868 -15.8296 71.2348 -15.9173 71.3828 -15.9905 71.5308 -16.0482 71.6788 -16.0899 71.8268 -16.1151 " />
</g>
<g>
<line x1="71.8268" y1="6.08921" x2="71.8268" y2="16.1235"  />
<line x1="71.8268" y1="-6.08921" x2="71.8268" y2="-16.1235"  />
<polyline points="71.8268 6.08921 72.4889 6.11303 73.151 6.18423 73.813 6.30202 74.4751 6.46513 75.1372 6.67175 75.7993 6.91963 76.4613 7.20604 77.1234 7.52786 77.7855 7.88156 78.4475 8.26326 79.1096 8.66878 79.7717 9.09367 80.4337 9.53329 81.0958 9.98281 81.7579 10.4373 82.4199 10.8918 83.082 11.3413 83.7441 11.7809 84.4061 12.2058 85.0682 12.6114 85.7303 12.9931 86.3924 13.3467 87.0544 13.6686 87.7165 13.955 88.3786 14.2029 89.0406 14.4095 89.7027 14.5726 90.3648 14.6904 91.0268 14.7616 " />
<polyline points="71.8268 -6.08921 72.4889 -6.11303 73.151 -6.18423 73.813 -6.30202 74.4751 -6.46513 75.1372 -6.67175 75.7993 -6.91963 76.4613 -7.20604 77.1234 -7.52786 77.7855 -7.88156 78.4475 -8.26326 79.1096 -8.66878 79.7717 -9.09367 80.4337 -9.53329 81.0958 -9.98281 81.7579 -10.4373 82.4199 -10.8918 83.082 -11.3413 83.7441 -11.7809 84.4061 -12.2058 85.0682 -12.6114 85.7303 -12.9931 86.3924 -13.3467 87.0544 -13.6686 87.7165 -13.955 88.3786 -14.2029 89.0406 -14.4095 89.7027 -14.5726 90.3648 -14.6904 91.0268 -14.7616 " />
<polyline points="71.8268 16.1235 72.4889 16.1323 73.151 16.1583 73.813 16.2015 74.4751 16.2612 75.1372 16.3369 75.7993 16.4277 76.4613 16.5326 77.1234 16.6505 77.7855 16.78 78.4475 16.9198 79.1096 17.0683 79.7717 17.2239 80.4337 17.3849 81.0958 17.5496 81.7579 17.7161 82.4199 17.8825 83.082 18.0472 83.7441 18.2082 84.4061 18.3638 85.0682 18.5123 85.7303 18.6521 86.3924 18.7816 87.0544 18.8995 87.7165 19.0044 88.3786 19.0952 89.0406 19.1709 89.7027 19.2306 90.3648 19.2738 91.0268 19.2998 " />
<polyline points="71.8268 -16.1235 72.4889 -16.1323 73.151 -16.1583 73.813 -16.2015 74.4751 -16.2612 75.1372 -16.3369 75.7993 -16.4277 76.4613 -16.5326 77.1234 -16.6505 77.7855 -16.78 78.4475 -16.9198 79.1096 -17.0683 79.7717 -17.2239 80.4337 -17.3849 81.0958 -17.5496 81.7579 -17.7161 82.4199 -17.8825 83.082 -18.0472 83.7441 -18.2082 84.4061 -18.3638 85.0682 -18.5123 85.7303 -18.6521 86.3924 -18.7816 87.0544 -18.8995 87.7165 -19.0044 88.3786 -19.0952 89.0406 -19.1709 89.7027 -19.2306 90.3648 -19.2738 91.0268 -19.2998 " />
</g>
<g>
<line x1="91.0268" y1="14.7854" x2="91.0268" y2="19.3086"  />
<line x1="91.0268" y1="-14.7854" x2="91.0268" y2="-19.3086"  />
<polyline points="91.0268 19.3086 91.0268 19.3086 91.0268 19.3086 95.8757 18.9947 99.44 19.2203 99.44 19.2203 " />
<polyline points="91.0268 -19.3086 91.0268 -19.3086 91.0268 -19.3086 95.8757 -18.9947 99.44 -19.2203 99.44 -19.2203 " />
<polyline points="91.0268 14.7854 91.0268 14.7854 91.0268 14.7854 95.8757 15.1866 99.44 14.8999 99.44 14.8999 " />
<polyline points="91.0268 -14.7854 91.0268 -14.7854 91.0268 -14.7854 95.8757 -15.1866 99.44 -14.8999 99.44 -14.8999 " />
<line x1="99.44" y1="14.8999" x2="99.44" y2="19.2203"  />
<line x1="99.44" y1="-14.8999" x2="99.44" y2="-19.2203"  />
<polygon style="fill: white;" points="91.0268 19.3086 91.0268 14.7854 92.8361 14.9351 92.8361 19.1914 " />
<polygon style="fill: white;" points="91.0268 -19.3086 91.0268 -14.7854 92.8361 -14.9351 92.8361 -19.1914 " />
<polygon style="fill: black;" points="93.4513 19.1516 93.4513 14.986 95.2605 15.1357 95.2605 19.0345 " />
<polygon style="fill: black;" points="93.4513 -19.1516 93.4513 -14.986 95.2605 -15.1357 95.2605 -19.0345 " />
<polygon style="fill: white;" points="95.8757 18.9947 95.8757 15.1866 97.3989 15.0641 97.3989 19.0911 " />
<polygon style="fill: white;" points="95.8757 -18.9947 95.8757 -15.1866 97.3989 -15.0641 97.3989 -19.0911 " />
<polygon style="fill: black;" points="97.9168 19.1239 97.9168 15.0224 99.44 14.8999 99.44 19.2203 " />
<polygon style="fill: black;" points="97.9168 -19.1239 97.9168 -15.0224 99.44 -14.8999 99.44 -19.2203 " />
</g>
<g>
<polyline points="93.4513 14.7854 93.4513 11.8974 95.2605 11.8974 95.2605 14.7854 93.4513 14.7854 93.4513 12.3497 95.2605 12.3497 95.2605 11.8974 94.6725 11.6474 94.0393 11.6474 93.4513 11.8974 94.0393 11.6474 93.7226 8.01847 94.9891 8.01847 94.6725 11.6474 94.9891 8.01847 94.9891 8.01847 94.9891 7.95799 94.9893 7.89751 94.9896 7.83703 94.9902 7.77655 94.9913 7.71607 94.993 7.65558 94.9953 7.5951 94.9985 7.53462 95.0026 7.47414 95.0077 7.41366 95.0141 7.35318 95.0217 7.2927 95.0308 7.23221 95.0415 7.17173 95.0538 7.11125 95.068 7.05077 95.0842 6.99029 95.1024 6.92981 95.1229 6.86933 95.1457 6.80884 95.171 6.74836 95.199 6.68788 95.2297 6.6274 95.2633 6.56692 95.2999 6.50644 95.3397 6.44596 95.3829 6.38547 95.4294 6.32499 95.4795 6.26451 95.5334 6.20403 96.176 6.20403 92.5357 6.20403 93.1784 6.20403 93.2322 6.26451 93.2824 6.32499 93.3289 6.38547 93.372 6.44596 93.4118 6.50644 93.4485 6.56692 93.4821 6.6274 93.5128 6.68788 93.5407 6.74836 93.5661 6.80884 93.5889 6.86933 93.6094 6.92981 93.6276 6.99029 93.6438 7.05077 93.658 7.11125 93.6703 7.17173 93.681 7.23221 93.6901 7.2927 93.6977 7.35318 93.704 7.41366 93.7092 7.47414 93.7133 7.53462 93.7164 7.5951 93.7188 7.65558 93.7204 7.71607 93.7215 7.77655 93.7222 7.83703 93.7225 7.89751 93.7226 7.95799 93.7226 8.01847 93.7226 8.01847 93.7226 7.95799 93.7225 7.89751 93.7222 7.83703 93.7215 7.77655 93.7204 7.71607 93.7188 7.65558 93.7164 7.5951 93.7133 7.53462 93.7092 7.47414 93.704 7.41366 93.6977 7.35318 93.6901 7.2927 93.681 7.23221 93.6703 7.17173 93.658 7.11125 93.6438 7.05077 93.6276 6.99029 93.6094 6.92981 93.5889 6.86933 93.5661 6.80884 93.5407 6.74836 93.5128 6.68788 93.4821 6.6274 93.4485 6.56692 93.4118 6.50644 93.372 6.44596 93.3289 6.38547 93.2824 6.32499 93.2322 6.26451 93.1784 6.20403 92.5357 6.20403 96.176 6.20403 96.176 5.17489 92.5357 5.17489 92.5357 6.20403 " />
<polyline points="93.4513 -14.7854 93.4513 -11.8974 95.2605 -11.8974 95.2605 -14.7854 93.4513 -14.7854 93.4513 -12.3497 95.2605 -12.3497 95.2605 -11.8974 94.6725 -11.6474 94.0393 -11.6474 93.4513 -11.8974 94.0393 -11.6474 93.7226 -8.01847 94.9891 -8.01847 94.6725 -11.6474 94.9891 -8.01847 94.9891 -8.01847 94.9891 -7.95799 94.9893 -7.89751 94.9896 -7.83703 94.9902 -7.77655 94.9913 -7.71607 94.993 -7.65558 94.9953 -7.5951 94.9985 -7.53462 95.0026 -7.47414 95.0077 -7.41366 95.0141 -7.35318 95.0217 -7.2927 95.0308 -7.23221 95.0415 -7.17173 95.0538 -7.11125 95.068 -7.05077 95.0842 -6.99029 95.1024 -6.92981 95.1229 -6.86933 95.1457 -6.80884 95.171 -6.74836 95.199 -6.68788 95.2297 -6.6274 95.2633 -6.56692 95.2999 -6.50644 95.3397 -6.44596 95.3829 -6.38547 95.4294 -6.32499 95.4795 -6.26451 95.5334 -6.20403 96.176 -6.20403 92.5357 -6.20403 93.1784 -6.20403 93.2322 -6.26451 93.2824 -6.32499 93.3289 -6.38547 93.372 -6.44596 93.4118 -6.50644 93.4485 -6.56692 93.4821 -6.6274 93.5128 -6.68788 93.5407 -6.74836 93.5661 -6.80884 93.5889 -6.86933 93.6094 -6.92981 93.6276 -6.99029 93.6438 -7.05077 93.658 -7.11125 93.6703 -7.17173 93.681 -7.23221 93.6901 -7.2927 93.6977 -7.35318 93.704 -7.41366 93.7092 -7.47414 93.7133 -7.53462 93.7164 -7.5951 93.7188 -7.65558 93.7204 -7.71607 93.7215 -7.77655 93.7222 -7.83703 93.7225 -7.89751 93.7226 -7.95799 93.7226 -8.01847 93.7226 -8.01847 93.7226 -7.95799 93.7225 -7.89751 93.7222 -7.83703 93.7215 -7.77655 93.7204 -7.71607 93.7188 -7.65558 93.7164 -7.5951 93.7133 -7.53462 93.7092 -7.47414 93.704 -7.41366 93.6977 -7.35318 93.6901 -7.2927 93.681 -7.23221 93.6703 -7.17173 93.658 -7.11125 93.6438 -7.05077 93.6276 -6.99029 93.6094 -6.92981 93.5889 -6.86933 93.5661 -6.80884 93.5407 -6.74836 93.5128 -6.68788 93.4821 -6.6274 93.4485 -6.56692 93.4118 -6.50644 93.372 -6.44596 93.3289 -6.38547 93.2824 -6.32499 93.2322 -6.26451 93.1784 -6.20403 92.5357 -6.20403 96.176 -6.20403 96.176 -5.17489 92.5357 -5.17489 92.5357 -6.20403 " />
<polyline points="97.9168 15.1866 97.9168 12.7551 99.44 12.7551 99.44 15.1866 97.9168 15.1866 97.9168 13.1359 99.44 13.1359 99.44 12.7551 98.945 12.5051 98.4119 12.5051 97.9168 12.7551 98.4119 12.5051 98.1453 8.44167 99.2116 8.44167 98.945 12.5051 99.2116 8.44167 99.2116 8.44167 99.2116 8.37395 99.2117 8.30622 99.212 8.2385 99.2127 8.17078 99.2139 8.10305 99.2157 8.03533 99.2182 7.9676 99.2215 7.89988 99.2259 7.83216 99.2314 7.76443 99.2381 7.69671 99.2462 7.62898 99.2559 7.56126 99.2673 7.49354 99.2804 7.42581 99.2955 7.35809 99.3127 7.29037 99.3321 7.22264 99.3539 7.15492 99.3782 7.08719 99.4052 7.01947 99.4349 6.95175 99.4676 6.88402 99.5034 6.8163 99.5424 6.74858 99.5847 6.68085 99.6306 6.61313 99.6802 6.5454 99.7335 6.47768 99.7908 6.40996 99.7908 6.40996 97.566 6.40996 97.566 6.40996 97.6233 6.47768 97.6767 6.5454 97.7262 6.61313 97.7721 6.68085 97.8145 6.74858 97.8535 6.8163 97.8893 6.88402 97.9219 6.95175 97.9517 7.01947 97.9786 7.08719 98.0029 7.15492 98.0247 7.22264 98.0441 7.29037 98.0613 7.35809 98.0764 7.42581 98.0896 7.49354 98.1009 7.56126 98.1106 7.62898 98.1187 7.69671 98.1255 7.76443 98.131 7.83216 98.1353 7.89988 98.1387 7.9676 98.1412 8.03533 98.1429 8.10305 98.1441 8.17078 98.1448 8.2385 98.1451 8.30622 98.1453 8.37395 98.1453 8.44167 98.1453 8.44167 98.1453 8.37395 98.1451 8.30622 98.1448 8.2385 98.1441 8.17078 98.1429 8.10305 98.1412 8.03533 98.1387 7.9676 98.1353 7.89988 98.131 7.83216 98.1255 7.76443 98.1187 7.69671 98.1106 7.62898 98.1009 7.56126 98.0896 7.49354 98.0764 7.42581 98.0613 7.35809 98.0441 7.29037 98.0247 7.22264 98.0029 7.15492 97.9786 7.08719 97.9517 7.01947 97.9219 6.95175 97.8893 6.88402 97.8535 6.8163 97.8145 6.74858 97.7721 6.68085 97.7262 6.61313 97.6767 6.5454 97.6233 6.47768 97.566 6.40996 97.566 6.40996 99.7908 6.40996 99.7908 5.3153 97.566 5.3153 97.566 6.40996 " />
<polyline points="97.9168 -15.1866 97.9168 -12.7551 99.44 -12.7551 99.44 -15.1866 97.9168 -15.1866 97.9168 -13.1359 99.44 -13.1359 99.44 -12.7551 98.945 -12.5051 98.4119 -12.5051 97.9168 -12.7551 98.4119 -12.5051 98.1453 -8.44167 99.2116 -8.44167 98.945 -12.5051 99.2116 -8.44167 99.2116 -8.44167 99.2116 -8.37395 99.2117 -8.30622 99.212 -8.2385 99.2127 -8.17078 99.2139 -8.10305 99.2157 -8.03533 99.2182 -7.9676 99.2215 -7.89988 99.2259 -7.83216 99.2314 -7.76443 99.2381 -7.69671 99.2462 -7.62898 99.2559 -7.56126 99.2673 -7.49354 99.2804 -7.42581 99.2955 -7.35809 99.3127 -7.29037 99.3321 -7.22264 99.3539 -7.15492 99.3782 -7.08719 99.4052 -7.01947 99.4349 -6.95175 99.4676 -6.88402 99.5034 -6.8163 99.5424 -6.74858 99.5847 -6.68085 99.6306 -6.61313 99.6802 -6.5454 99.7335 -6.47768 99.7908 -6.40996 99.7908 -6.40996 97.566 -6.40996 97.566 -6.40996 97.6233 -6.47768 97.6767 -6.5454 97.7262 -6.61313 97.7721 -6.68085 97.8145 -6.74858 97.8535 -6.8163 97.8893 -6.88402 97.9219 -6.95175 97.9517 -7.01947 97.9786 -7.08719 98.0029 -7.15492 98.0247 -7.22264 98.0441 -7.29037 98.0613 -7.35809 98.0764 -7.42581 98.0896 -7.49354 98.1009 -7.56126 98.1106 -7.62898 98.1187 -7.69671 98.1255 -7.76443 98.131 -7.83216 98.1353 -7.89988 98.1387 -7.9676 98.1412 -8.03533 98.1429 -8.10305 98.1441 -8.17078 98.1448 -8.2385 98.1451 -8.30622 98.1453 -8.37395 98.1453 -8.44167 98.1453 -8.44167 98.1453 -8.37395 98.1451 -8.30622 98.1448 -8.2385 98.1441 -8.17078 98.1429 -8.10305 98.1412 -8.03533 98.1387 -7.9676 98.1353 -7.89988 98.131 -7.83216 98.1255 -7.76443 98.1187 -7.69671 98.1106 -7.62898 98.1009 -7.56126 98.0896 -7.49354 98.0764 -7.42581 98.0613 -7.35809 98.0441 -7.29037 98.0247 -7.22264 98.0029 -7.15492 97.9786 -7.08719 97.9517 -7.01947 97.9219 -6.95175 97.8893 -6.88402 97.8535 -6.8163 97.8145 -6.74858 97.7721 -6.68085 97.7262 -6.61313 97.6767 -6.5454 97.6233 -6.47768 97.566 -6.40996 97.566 -6.40996 99.7908 -6.40996 99.7908 -5.3153 97.566 -5.3153 97.566 -6.40996 " />
</g>
<g>
<line x1="99.44" y1="14.8429" x2="99.44" y2="19.2773"  />
<line x1="99.44" y1="-14.8429" x2="99.44" y2="-19.2773"  />
<polyline points="99.44 14.8429 99.5165 14.8459 99.593 14.8547 99.6694 14.8693 99.7459 14.8895 99.8223 14.9151 99.8988 14.9458 99.9752 14.9813 100.052 15.0212 100.128 15.065 100.205 15.1124 100.281 15.1626 100.358 15.2153 100.434 15.2698 100.51 15.3255 100.587 15.3818 100.663 15.4381 100.74 15.4939 100.816 15.5483 100.893 15.601 100.969 15.6513 101.046 15.6986 101.122 15.7424 101.199 15.7823 101.275 15.8178 101.351 15.8485 101.428 15.8741 101.504 15.8943 101.581 15.9089 101.657 15.9178 " />
<polyline points="99.44 -14.8429 99.5165 -14.8459 99.593 -14.8547 99.6694 -14.8693 99.7459 -14.8895 99.8223 -14.9151 99.8988 -14.9458 99.9752 -14.9813 100.052 -15.0212 100.128 -15.065 100.205 -15.1124 100.281 -15.1626 100.358 -15.2153 100.434 -15.2698 100.51 -15.3255 100.587 -15.3818 100.663 -15.4381 100.74 -15.4939 100.816 -15.5483 100.893 -15.601 100.969 -15.6513 101.046 -15.6986 101.122 -15.7424 101.199 -15.7823 101.275 -15.8178 101.351 -15.8485 101.428 -15.8741 101.504 -15.8943 101.581 -15.9089 101.657 -15.9178 " />
<polyline points="99.44 19.2773 99.5165 19.2799 99.593 19.2874 99.6694 19.2999 99.7459 19.3173 99.8223 19.3392 99.8988 19.3655 99.9752 19.3959 100.052 19.4301 100.128 19.4677 100.205 19.5082 100.281 19.5513 100.358 19.5964 100.434 19.6431 100.51 19.6908 100.587 19.7391 100.663 19.7874 100.74 19.8351 100.816 19.8818 100.893 19.9269 100.969 19.97 101.046 20.0105 101.122 20.0481 101.199 20.0822 101.275 20.1127 101.351 20.139 101.428 20.1609 101.504 20.1782 101.581 20.1908 101.657 20.1983 " />
<polyline points="99.44 -19.2773 99.5165 -19.2799 99.593 -19.2874 99.6694 -19.2999 99.7459 -19.3173 99.8223 -19.3392 99.8988 -19.3655 99.9752 -19.3959 100.052 -19.4301 100.128 -19.4677 100.205 -19.5082 100.281 -19.5513 100.358 -19.5964 100.434 -19.6431 100.51 -19.6908 100.587 -19.7391 100.663 -19.7874 100.74 -19.8351 100.816 -19.8818 100.893 -19.9269 100.969 -19.97 101.046 -20.0105 101.122 -20.0481 101.199 -20.0822 101.275 -20.1127 101.351 -20.139 101.428 -20.1609 101.504 -20.1782 101.581 -20.1908 101.657 -20.1983 " />
</g>
<g>
<line x1="101.657" y1="15.9207" x2="101.657" y2="20.2008"  />
<line x1="101.657" y1="-15.9207" x2="101.657" y2="-20.2008"  />
<polyline points="101.657 20.2008 101.657 20.2008 101.657 20.2008 105.242 21.2411 109.081 22.6448 113.264 24.5782 117.316 27.2975 126.731 27.2975 " />
<polyline points="101.657 -20.2008 101.657 -20.2008 101.657 -20.2008 105.242 -21.2411 109.081 -22.6448 113.264 -24.5782 117.316 -27.2975 126.731 -27.2975 " />
<polyline points="101.657 15.9207 101.657 15.9207 101.657 15.9207 105.242 15.9207 109.081 15.9207 113.264 15.9207 117.316 15.9207 126.731 15.9207 " />
<polyline points="101.657 -15.9207 101.657 -15.9207 101.657 -15.9207 105.242 -15.9207 109.081 -15.9207 113.264 -15.9207 117.316 -15.9207 126.731 -15.9207 " />
<line x1="126.731" y1="15.9207" x2="126.731" y2="27.2975"  />
<line x1="126.731" y1="-15.9207" x2="126.731" y2="-27.2975"  />
<polygon style="fill: white;" points="101.657 20.2008 101.657 15.9207 103.262 15.9207 103.262 20.6666 " />
<polygon style="fill: white;" points="101.657 -20.2008 101.657 -15.9207 103.262 -15.9207 103.262 -20.6666 " />
<polygon style="fill: black;" points="103.717 20.7986 103.717 15.9207 104.787 15.9207 104.787 21.1091 " />
<polygon style="fill: black;" points="103.717 -20.7986 103.717 -15.9207 104.787 -15.9207 104.787 -21.1091 " />
<polygon style="fill: white;" points="105.242 21.2411 105.242 15.9207 106.879 15.9207 106.879 21.8397 " />
<polygon style="fill: white;" points="105.242 -21.2411 105.242 -15.9207 106.879 -15.9207 106.879 -21.8397 " />
<polygon style="fill: black;" points="107.366 22.0177 107.366 15.9207 108.594 15.9207 108.594 22.4667 " />
<polygon style="fill: black;" points="107.366 -22.0177 107.366 -15.9207 108.594 -15.9207 108.594 -22.4667 " />
<polygon style="fill: white;" points="109.081 22.6448 109.081 15.9207 110.762 15.9207 110.762 23.4217 " />
<polygon style="fill: white;" points="109.081 -22.6448 109.081 -15.9207 110.762 -15.9207 110.762 -23.4217 " />
<polygon style="fill: black;" points="111.292 23.667 111.292 15.9207 112.733 15.9207 112.733 24.3329 " />
<polygon style="fill: black;" points="111.292 -23.667 111.292 -15.9207 112.733 -15.9207 112.733 -24.3329 " />
<polygon style="fill: white;" points="113.264 24.5782 113.264 15.9207 114.996 15.9207 114.996 25.7403 " />
<polygon style="fill: white;" points="113.264 -24.5782 113.264 -15.9207 114.996 -15.9207 114.996 -25.7403 " />
<polygon style="fill: black;" points="115.584 26.1354 115.584 15.9207 117.316 15.9207 117.316 27.2975 " />
<polygon style="fill: black;" points="115.584 -26.1354 115.584 -15.9207 117.316 -15.9207 117.316 -27.2975 " />
</g>
<g>
<polyline points="103.717 15.9207 103.717 14.5832 103.717 14.5832 104.787 14.5832 104.787 14.5832 104.787 15.9207 104.787 15.9207 103.717 15.9207 103.717 14.8507 104.787 14.8507 104.787 14.5832 104.377 14.3332 104.377 14.3332 104.127 14.3332 104.127 14.3332 103.717 14.5832 104.127 14.3332 104.127 7.75725 104.127 7.75725 104.377 7.75725 104.377 7.75725 104.377 14.3332 104.377 7.75725 104.673 7.25725 104.673 7.25725 103.831 7.25725 103.831 7.25725 104.127 7.75725 103.831 7.25725 103.831 5.57225 103.831 5.57225 104.673 5.57225 104.673 5.57225 104.673 7.25725 104.377 7.75725 104.377 14.3332 104.787 14.5832 " />
<polyline points="103.717 -15.9207 103.717 -14.5832 103.717 -14.5832 104.787 -14.5832 104.787 -14.5832 104.787 -15.9207 104.787 -15.9207 103.717 -15.9207 103.717 -14.8507 104.787 -14.8507 104.787 -14.5832 104.377 -14.3332 104.377 -14.3332 104.127 -14.3332 104.127 -14.3332 103.717 -14.5832 104.127 -14.3332 104.127 -7.75725 104.127 -7.75725 104.377 -7.75725 104.377 -7.75725 104.377 -14.3332 104.377 -7.75725 104.673 -7.25725 104.673 -7.25725 103.831 -7.25725 103.831 -7.25725 104.127 -7.75725 103.831 -7.25725 103.831 -5.57225 103.831 -5.57225 104.673 -5.57225 104.673 -5.57225 104.673 -7.25725 104.377 -7.75725 104.377 -14.3332 104.787 -14.5832 " />
<polyline points="107.366 15.9207 107.366 14.2837 107.366 14.2837 108.594 14.2837 108.594 14.2837 108.594 15.9207 108.594 15.9207 107.366 15.9207 107.366 14.5906 108.594 14.5906 108.594 14.2837 108.105 14.0337 108.105 14.0337 107.855 14.0337 107.855 14.0337 107.366 14.2837 107.855 14.0337 107.855 7.73725 107.855 7.73725 108.105 7.73725 108.105 7.73725 108.105 14.0337 108.105 7.73725 108.396 7.23725 108.396 7.23725 107.564 7.23725 107.564 7.23725 107.855 7.73725 107.564 7.23725 107.564 5.57225 107.564 5.57225 108.396 5.57225 108.396 5.57225 108.396 7.23725 108.105 7.73725 108.105 14.0337 108.594 14.2837 " />
<polyline points="107.366 -15.9207 107.366 -14.2837 107.366 -14.2837 108.594 -14.2837 108.594 -14.2837 108.594 -15.9207 108.594 -15.9207 107.366 -15.9207 107.366 -14.5906 108.594 -14.5906 108.594 -14.2837 108.105 -14.0337 108.105 -14.0337 107.855 -14.0337 107.855 -14.0337 107.366 -14.2837 107.855 -14.0337 107.855 -7.73725 107.855 -7.73725 108.105 -7.73725 108.105 -7.73725 108.105 -14.0337 108.105 -7.73725 108.396 -7.23725 108.396 -7.23725 107.564 -7.23725 107.564 -7.23725 107.855 -7.73725 107.564 -7.23725 107.564 -5.57225 107.564 -5.57225 108.396 -5.57225 108.396 -5.57225 108.396 -7.23725 108.105 -7.73725 108.105 -14.0337 108.594 -14.2837 " />
<polyline points="111.292 15.9207 111.292 13.8795 111.292 13.8795 112.733 13.8795 112.733 13.8795 112.733 15.9207 112.733 15.9207 111.292 15.9207 111.292 14.2397 112.733 14.2397 112.733 13.8795 112.138 13.6295 112.138 13.6295 111.888 13.6295 111.888 13.6295 111.292 13.8795 111.888 13.6295 111.888 7.73725 111.888 7.73725 112.138 7.73725 112.138 7.73725 112.138 13.6295 112.138 7.73725 112.429 7.23725 112.429 7.23725 111.597 7.23725 111.597 7.23725 111.888 7.73725 111.597 7.23725 111.597 5.57225 111.597 5.57225 112.429 5.57225 112.429 5.57225 112.429 7.23725 112.138 7.73725 112.138 13.6295 112.733 13.8795 " />
<polyline points="111.292 -15.9207 111.292 -13.8795 111.292 -13.8795 112.733 -13.8795 112.733 -13.8795 112.733 -15.9207 112.733 -15.9207 111.292 -15.9207 111.292 -14.2397 112.733 -14.2397 112.733 -13.8795 112.138 -13.6295 112.138 -13.6295 111.888 -13.6295 111.888 -13.6295 111.292 -13.8795 111.888 -13.6295 111.888 -7.73725 111.888 -7.73725 112.138 -7.73725 112.138 -7.73725 112.138 -13.6295 112.138 -7.73725 112.429 -7.23725 112.429 -7.23725 111.597 -7.23725 111.597 -7.23725 111.888 -7.73725 111.597 -7.23725 111.597 -5.57225 111.597 -5.57225 112.429 -5.57225 112.429 -5.57225 112.429 -7.23725 112.138 -7.73725 112.138 -13.6295 112.733 -13.8795 " />
<polyline points="115.584 15.9207 115.584 13.3235 115.584 13.3235 117.316 13.3235 117.316 13.3235 117.316 15.9207 117.316 15.9207 115.584 15.9207 115.584 13.7563 117.316 13.7563 117.316 13.3235 116.575 13.0735 116.575 13.0735 116.325 13.0735 116.325 13.0735 115.584 13.3235 116.325 13.0735 116.325 7.73725 116.325 7.73725 116.575 7.73725 116.575 7.73725 116.575 13.0735 116.575 7.73725 116.866 7.23725 116.866 7.23725 116.034 7.23725 116.034 7.23725 116.325 7.73725 116.034 7.23725 116.034 5.57225 116.034 5.57225 116.866 5.57225 116.866 5.57225 116.866 7.23725 116.575 7.73725 116.575 13.0735 117.316 13.3235 " />
<polyline points="115.584 -15.9207 115.584 -13.3235 115.584 -13.3235 117.316 -13.3235 117.316 -13.3235 117.316 -15.9207 117.316 -15.9207 115.584 -15.9207 115.584 -13.7563 117.316 -13.7563 117.316 -13.3235 116.575 -13.0735 116.575 -13.0735 116.325 -13.0735 116.325 -13.0735 115.584 -13.3235 116.325 -13.0735 116.325 -7.73725 116.325 -7.73725 116.575 -7.73725 116.575 -7.73725 116.575 -13.0735 116.575 -7.73725 116.866 -7.23725 116.866 -7.23725 116.034 -7.23725 116.034 -7.23725 116.325 -7.73725 116.034 -7.23725 116.034 -5.57225 116.034 -5.57225 116.866 -5.57225 116.866 -5.57225 116.866 -7.23725 116.575 -7.73725 116.575 -13.0735 117.316 -13.3235 " />
</g>
<g>
<polygon style="fill: yellow;" points="118.885 15.9207 118.885 27.2975 126.731 27.2975 126.731 15.9207 " />
<polygon style="fill: yellow;" points="118.885 -15.9207 118.885 -27.2975 126.731 -27.2975 126.731 -15.9207 " />
</g>
<g>
<line x1="126.731" y1="15.9207" x2="126.731" y2="27.2975"  />
<line x1="126.731" y1="-15.9207" x2="126.731" y2="-27.2975"  />
<polyline points="126.731 15.9207 126.829 15.9207 126.927 15.9207 127.025 15.9207 127.123 15.9207 127.221 15.9207 127.319 15.9207 127.418 15.9207 127.516 15.9207 127.614 15.9207 127.712 15.9207 127.81 15.9207 127.908 15.9207 128.006 15.9207 128.104 15.9207 128.202 15.9207 128.3 15.9207 128.398 15.9207 128.496 15.9207 128.594 15.9207 128.693 15.9207 128.791 15.9207 128.889 15.9207 128.987 15.9207 129.085 15.9207 129.183 15.9207 129.281 15.9207 129.379 15.9207 129.477 15.9207 129.575 15.9207 " />
<polyline points="126.731 -15.9207 126.829 -15.9207 126.927 -15.9207 127.025 -15.9207 127.123 -15.9207 127.221 -15.9207 127.319 -15.9207 127.418 -15.9207 127.516 -15.9207 127.614 -15.9207 127.712 -15.9207 127.81 -15.9207 127.908 -15.9207 128.006 -15.9207 128.104 -15.9207 128.202 -15.9207 128.3 -15.9207 128.398 -15.9207 128.496 -15.9207 128.594 -15.9207 128.693 -15.9207 128.791 -15.9207 128.889 -15.9207 128.987 -15.9207 129.085 -15.9207 129.183 -15.9207 129.281 -15.9207 129.379 -15.9207 129.477 -15.9207 129.575 -15.9207 " />
<polyline points="126.731 27.2975 126.829 27.2975 126.927 27.2975 127.025 27.2975 127.123 27.2975 127.221 27.2975 127.319 27.2975 127.418 27.2975 127.516 27.2975 127.614 27.2975 127.712 27.2975 127.81 27.2975 127.908 27.2975 128.006 27.2975 128.104 27.2975 128.202 27.2975 128.3 27.2975 128.398 27.2975 128.496 27.2975 128.594 27.2975 128.693 27.2975 128.791 27.2975 128.889 27.2975 128.987 27.2975 129.085 27.2975 129.183 27.2975 129.281 27.2975 129.379 27.2975 129.477 27.2975 129.575 27.2975 " />
<polyline points="126.731 -27.2975 126.829 -27.2975 126.927 -27.2975 127.025 -27.2975 127.123 -27.2975 127.221 -27.2975 127.319 -27.2975 127.418 -27.2975 127.516 -27.2975 127.614 -27.2975 127.712 -27.2975 127.81 -27.2975 127.908 -27.2975 128.006 -27.2975 128.104 -27.2975 128.202 -27.2975 128.3 -27.2975 128.398 -27.2975 128.496 -27.2975 128.594 -27.2975 128.693 -27.2975 128.791 -27.2975 128.889 -27.2975 128.987 -27.2975 129.085 -27.2975 129.183 -27.2975 129.281 -27.2975 129.379 -27.2975 129.477 -27.2975 129.575 -27.2975 " />
</g>
<g>
<polyline points="129.575 27.2975 170.522 16.5039 170.522 0 170.522 16.5039 170.522 16.5043 129.575 27.2975 129.575 15.9207 154.143 0 " />
<polyline points="129.575 -27.2975 170.522 -16.5039 170.522 -0 170.522 -16.5039 170.522 -16.5043 129.575 -27.2975 129.575 -15.9207 154.143 -0 " />
</g>
<g>
<line x1="29.5926" y1="29.1194" x2="29.5926" y2="45.3459"  />
<line x1="29.5926" y1="-29.1194" x2="29.5926" y2="-45.3459"  />
<polyline points="29.5926 29.1194 30.9915 29.1194 32.3903 29.1194 33.7891 29.1194 35.188 29.1194 36.5868 29.1194 37.9857 29.1194 39.3845 29.1194 40.7833 29.1194 42.1822 29.1194 43.581 29.1194 44.9798 29.1194 46.3787 29.1194 47.7775 29.1194 49.1764 29.1194 50.5752 29.1194 51.974 29.1194 53.3729 29.1194 54.7717 29.1194 56.1705 29.1194 57.5694 29.1194 58.9682 29.1194 60.3671 29.1194 61.7659 29.1194 63.1647 29.1194 64.5636 29.1194 65.9624 29.1194 67.3612 29.1194 68.7601 29.1194 70.1589 29.1194 " />
<polyline points="29.5926 -29.1194 30.9915 -29.1194 32.3903 -29.1194 33.7891 -29.1194 35.188 -29.1194 36.5868 -29.1194 37.9857 -29.1194 39.3845 -29.1194 40.7833 -29.1194 42.1822 -29.1194 43.581 -29.1194 44.9798 -29.1194 46.3787 -29.1194 47.7775 -29.1194 49.1764 -29.1194 50.5752 -29.1194 51.974 -29.1194 53.3729 -29.1194 54.7717 -29.1194 56.1705 -29.1194 57.5694 -29.1194 58.9682 -29.1194 60.3671 -29.1194 61.7659 -29.1194 63.1647 -29.1194 64.5636 -29.1194 65.9624 -29.1194 67.3612 -29.1194 68.7601 -29.1194 70.1589 -29.1194 " />
<polyline points="29.5926 45.3459 30.9915 45.3459 32.3903 45.3459 33.7891 45.3459 35.188 45.3459 36.5868 45.3459 37.9857 45.3459 39.3845 45.3459 40.7833 45.3459 42.1822 45.3459 43.581 45.3459 44.9798 45.3459 46.3787 45.3459 47.7775 45.3459 49.1764 45.3459 50.5752 45.3459 51.974 45.3459 53.3729 45.3459 54.7717 45.3459 56.1705 45.3459 57.5694 45.3459 58.9682 45.3459 60.3671 45.3459 61.7659 45.3459 63.1647 45.3459 64.5636 45.3459 65.9624 45.3459 67.3612 45.3459 68.7601 45.3459 70.1589 45.3459 " />
<polyline points="29.5926 -45.3459 30.9915 -45.3459 32.3903 -45.3459 33.7891 -45.3459 35.188 -45.3459 36.5868 -45.3459 37.9857 -45.3459 39.3845 -45.3459 40.7833 -45.3459 42.1822 -45.3459 43.581 -45.3459 44.9798 -45.3459 46.3787 -45.3459 47.7775 -45.3459 49.1764 -45.3459 50.5752 -45.3459 51.974 -45.3459 53.3729 -45.3459 54.7717 -45.3459 56.1705 -45.3459 57.5694 -45.3459 58.9682 -45.3459 60.3671 -45.3459 61.7659 -45.3459 63.1647 -45.3459 64.5636 -45.3459 65.9624 -45.3459 67.3612 -45.3459 68.7601 -45.3459 70.1589 -45.3459 " />
</g>
<g>
<polyline points="115.505 37.3466 115.505 37.3466 115.505 37.3466 113.885 37.3225 112.266 37.2505 110.646 37.1313 109.027 36.9664 107.407 36.7578 105.788 36.5078 104.168 36.2195 102.549 35.8961 100.929 35.5415 99.3098 35.1599 97.6903 34.7556 96.0709 34.3335 94.4514 33.8985 92.8319 33.4557 91.2124 33.0103 89.5929 32.5675 87.9734 32.1325 86.3539 31.7104 84.7344 31.3061 83.1149 30.9245 81.4954 30.5699 79.8759 30.2465 78.2564 29.9582 76.6369 29.7082 75.0174 29.4996 73.3979 29.3347 71.7784 29.2155 70.1589 29.1435 70.1589 29.1194 70.1589 45.3459 70.1589 45.3459 71.7784 45.3522 73.3979 45.3711 75.0174 45.4023 76.6369 45.4454 78.2564 45.5 79.8759 45.5655 81.4954 45.641 83.1149 45.7257 84.7344 45.8185 86.3539 45.9184 87.9734 46.0243 89.5929 46.1348 91.2124 46.2487 92.8319 46.3646 94.4514 46.4812 96.0709 46.5972 97.6903 46.7111 99.3098 46.8216 100.929 46.9274 102.549 47.0274 104.168 47.1202 105.788 47.2049 107.407 47.2804 109.027 47.3458 110.646 47.4005 112.266 47.4436 113.885 47.4748 115.505 47.4937 115.505 47.5 115.505 37.3466 " />
<polyline points="115.505 -37.3466 115.505 -37.3466 115.505 -37.3466 113.885 -37.3225 112.266 -37.2505 110.646 -37.1313 109.027 -36.9664 107.407 -36.7578 105.788 -36.5078 104.168 -36.2195 102.549 -35.8961 100.929 -35.5415 99.3098 -35.1599 97.6903 -34.7556 96.0709 -34.3335 94.4514 -33.8985 92.8319 -33.4557 91.2124 -33.0103 89.5929 -32.5675 87.9734 -32.1325 86.3539 -31.7104 84.7344 -31.3061 83.1149 -30.9245 81.4954 -30.5699 79.8759 -30.2465 78.2564 -29.9582 76.6369 -29.7082 75.0174 -29.4996 73.3979 -29.3347 71.7784 -29.2155 70.1589 -29.1435 70.1589 -29.1194 70.1589 -45.3459 70.1589 -45.3459 71.7784 -45.3522 73.3979 -45.3711 75.0174 -45.4023 76.6369 -45.4454 78.2564 -45.5 79.8759 -45.5655 81.4954 -45.641 83.1149 -45.7257 84.7344 -45.8185 86.3539 -45.9184 87.9734 -46.0243 89.5929 -46.1348 91.2124 -46.2487 92.8319 -46.3646 94.4514 -46.4812 96.0709 -46.5972 97.6903 -46.7111 99.3098 -46.8216 100.929 -46.9274 102.549 -47.0274 104.168 -47.1202 105.788 -47.2049 107.407 -47.2804 109.027 -47.3458 110.646 -47.4005 112.266 -47.4436 113.885 -47.4748 115.505 -47.4937 115.505 -47.5 115.505 -37.3466 " />
<line x1="115.505" y1="37.3466" x2="170.522" y2="16.5039"  />
<line x1="115.505" y1="-37.3466" x2="170.522" y2="-16.5039"  />
</g>
<g>
<polyline style="stroke-width: .7px;" points="5.53645 2.94487 109.486 2.94487 115.861 15.9207 " />
<polyline style="stroke-width: .7px;" points="5.53645 -2.94487 109.486 -2.94487 115.861 -15.9207 " />
</g>
<g>
<polyline points="0 48.0223 -4.42916 48.0223 -48.0223 40.7913 -49.5797 40.87 -51.137 41.1164 -52.6943 41.57 -54.2517 42.3487 -55.809 44.6847 " />
<polyline points="-57.246 -45.4032 -55.4012 -42.6361 -53.5565 -41.7137 -51.7118 -41.1764 -49.8671 -40.8845 -48.0223 -40.7913 -4.42916 -48.0223 0 -48.0223 " />
<polyline points="-55.809 44.6847 -55.4006 46.1608 -54.9922 46.7697 -54.5838 47.2356 -53.3586 48.2787 -51.7249 49.3002 -14.9685 56.0223 20 56.0223 115.505 47.5 " />
<polyline points="-57.246 -45.4032 -56.4292 -47.356 -56.0208 -47.7925 -54.7955 -48.7694 -53.1619 -49.7262 -16.4054 -56.0223 -16.4054 -56.0223 20 -56.0223 115.505 -47.5 " />
<path d="M 0 -19.2089 A 23.0507 23.0507 0 0 0 0 19.2089
" />
</g>
<g>
<polyline style="stroke-width: .7px;" points="67.5345 11.0483 71.8268 3.27374 99.44 3.27374 " />
<polyline style="stroke-width: .7px;" points="67.5345 -11.0483 71.8268 -3.27374 99.44 -3.27374 " />
</g>
<g transform="rotate(45,59.4614,0)" >
<circle style="stroke: green;" cx="59.4614" cy="0" r="0.91107"/>
<line x1="59.4614" y1="-0.91107" x2="59.4614" y2="0.91107" style="stroke: green;"  />
<line x1="58.5504" y1="0" x2="60.3725" y2="0" style="stroke: green;"  />
</g></g></svg>
